<svg width="987" height="217" viewBox="0 0 987 217" fill="none" xmlns="http://www.w3.org/2000/svg">
<path d="M42.8603 1.25274C29.7937 3.65274 21.127 7.91941 12.9937 15.7861C3.66035 24.8527 1.26035 31.6527 0.193681 51.9194C-0.606319 68.7194 0.993681 78.9861 6.46035 90.1861C11.527 100.319 16.8603 105.253 42.327 122.453C64.4604 137.519 68.327 141.119 70.327 148.586C72.1937 155.519 72.1937 168.986 70.327 174.453C67.7937 181.519 59.6604 183.653 54.9937 178.453C52.8604 176.053 52.4604 172.986 51.927 156.453L51.527 137.253L26.5937 137.519L1.79368 137.919L1.92701 153.919C2.19368 180.319 5.52701 190.986 16.4603 201.119C40.5937 223.386 93.527 221.519 114.327 197.786C118.327 193.386 122.46 182.319 122.46 176.319C122.46 174.586 123.127 173.253 123.794 173.253C124.594 173.253 125.127 180.586 125.127 192.586V211.919H151.794H178.46V168.586V125.253H186.46H194.46V168.586V211.919L224.06 211.653L253.66 211.253L255.66 205.253C256.994 200.986 257.527 193.253 257.527 178.586C257.394 144.853 252.86 130.319 237.794 114.586C227.927 104.453 228.06 103.919 241.26 103.919H249.127L248.86 54.1861L248.46 4.58607H221.794H195.127L194.727 41.5194L194.46 78.5861H186.46H178.46V41.2527V3.91941H151.794H125.127V74.5861C125.127 113.386 124.594 145.253 123.927 145.253C123.394 145.253 122.46 142.053 122.06 138.186C121.66 134.453 120.06 127.653 118.327 123.253C114.46 112.853 103.66 102.053 84.9937 89.9194C51.527 68.3194 51.3937 68.0527 51.2604 52.7194C51.2604 47.5194 52.0604 41.9194 52.8604 40.3194C55.7937 35.1194 65.127 34.5861 67.127 39.6527C67.527 40.8527 68.327 47.7861 68.727 54.8527L69.527 67.9194H94.0604C115.26 67.9194 118.594 67.6527 119.394 65.7861C120.46 62.8527 117.527 33.7861 115.527 27.2527C112.327 16.9861 99.6604 7.51941 83.3937 3.11941C74.5937 0.719406 51.927 -0.347261 42.8603 1.25274ZM817.127 2.18607C808.594 5.11941 800.46 11.1194 795.927 17.7861C786.594 31.2527 782.86 54.8527 786.994 73.3861C790.327 88.3194 795.927 97.1194 820.46 125.919C840.06 148.986 841.127 150.719 841.127 160.853C841.127 165.519 840.46 170.586 839.794 172.053C838.194 174.986 831.26 175.519 829.527 172.853C828.994 172.053 828.194 165.519 827.794 158.586L827.127 145.919L805.527 145.519L783.794 145.253V157.519C783.794 186.586 793.527 204.453 812.994 212.186C823.794 216.319 845.394 216.319 855.927 212.186C876.46 204.053 886.06 184.719 884.727 154.586C883.794 131.653 879.26 123.119 849.794 89.2528C831.394 67.9194 829.127 64.1861 829.127 53.6527C829.127 45.1194 831.66 39.9194 835.794 39.9194C840.594 39.9194 842.46 44.9861 842.46 57.5194V69.2527H864.594H886.86L886.06 54.8527C884.594 25.1194 874.06 7.91941 854.06 1.91941C845.127 -0.747261 824.994 -0.613927 817.127 2.18607ZM642.46 107.253V211.919H680.46H718.46V190.586V169.253H701.794H685.127V85.9194V2.58607H663.794H642.46V107.253ZM727.794 107.253V211.919H749.127H770.46V107.253V2.58607H749.127H727.794V107.253ZM891.794 23.9194V45.2527H904.46H917.127V128.586V211.919H939.127H961.127V128.586V45.2527H973.794H986.594L986.194 24.1861L985.794 3.25274L938.86 2.85274L891.794 2.58607V23.9194ZM269.794 5.51941C269.127 7.65274 257.127 98.4528 257.127 101.519C257.127 102.853 258.327 104.053 260.194 104.453C274.594 107.119 285.927 110.186 293.527 113.253L302.46 116.986L302.994 114.186C303.394 112.586 304.86 100.453 306.46 87.2528C308.06 74.0528 309.794 61.7861 310.327 60.0527C310.86 58.0527 312.46 70.4528 314.46 91.7861L317.527 126.719L323.527 131.653C341.794 146.586 360.06 180.186 364.46 206.853L365.26 211.919H395.794H426.46V165.119V118.186L431.394 118.986C441.794 120.719 442.327 123.653 442.46 172.853V211.919H467.927H493.394L492.86 170.186C492.46 131.386 492.194 128.186 489.527 122.586C486.06 114.853 480.46 109.786 472.46 106.719L465.927 104.186L473.394 102.053C482.194 99.5194 488.194 93.5194 490.594 84.9861C492.86 77.1194 492.86 47.6527 490.594 38.5861C488.194 28.8527 485.794 24.3194 479.927 18.1861C469.127 6.71941 460.327 5.11941 409.394 4.85274L372.46 4.58607L371.794 82.3194L371.127 160.186L360.06 84.9861C353.927 43.6527 348.594 8.58607 348.194 6.85274L347.527 3.91941H308.994C279.26 3.91941 270.194 4.31941 269.794 5.51941ZM438.594 43.7861C441.66 46.1861 441.794 47.1194 441.794 63.1194C441.794 82.0527 440.86 84.3194 431.527 85.9194L426.46 86.8528V64.0527V41.2527H430.994C433.527 41.2527 436.86 42.4527 438.594 43.7861ZM498.86 4.85274C497.527 5.38607 497.127 27.3861 497.127 108.719V211.919H524.46H551.794L551.927 169.519L552.06 127.253L561.66 165.919C566.994 187.119 571.66 206.186 572.194 208.186L573.127 211.919H601.26C627.394 211.919 629.26 211.786 628.594 209.519C628.194 208.319 620.594 182.853 611.794 152.986L595.66 98.7194L610.86 52.0527C619.26 26.3194 625.794 4.98607 625.394 4.58607C624.327 3.51941 577.927 3.78607 576.327 4.98607C575.527 5.51941 569.927 22.9861 563.66 43.7861L552.46 81.6528L552.06 42.8527L551.794 3.91941L526.06 4.05274C512.06 4.05274 499.66 4.45274 498.86 4.85274Z" fill="white"/>
</svg>
