<svg width="33" height="33" viewBox="0 0 33 33" fill="none" xmlns="http://www.w3.org/2000/svg">
<g clip-path="url(#clip0_89_153)">
<path d="M17.8202 12.9458C15.3042 12.9458 13.2661 14.9846 13.2661 17.4998C13.2661 20.0156 15.305 22.0538 17.8202 22.0538C20.3359 22.0538 22.3741 20.015 22.3741 17.4998C22.3741 14.984 20.3353 12.9458 17.8202 12.9458ZM17.8202 9.90982C22.0104 9.90982 25.4101 13.3057 25.4101 17.4998C25.4101 21.6902 22.0142 25.0898 17.8202 25.0898C13.6297 25.0898 10.2301 21.6939 10.2301 17.4998C10.2301 13.3094 13.626 9.90982 17.8202 9.90982ZM27.6871 9.52903C27.6871 10.5766 26.8358 11.4266 25.7896 11.4266C24.7421 11.4266 23.8921 10.5753 23.8921 9.52903C23.8921 8.48275 24.7433 7.63282 25.7896 7.63282C26.8345 7.6315 27.6871 8.48275 27.6871 9.52903ZM17.8202 5.35582C14.0639 5.35582 13.4516 5.36576 11.7045 5.44356C10.5143 5.49944 9.71636 5.65953 8.97502 5.94734C8.31621 6.20285 7.84097 6.50795 7.33461 7.01431C6.82631 7.52261 6.52175 7.99658 6.26727 8.65569C5.97879 9.39874 5.81875 10.1954 5.76387 11.384C5.68532 13.06 5.67613 13.6457 5.67613 17.4998C5.67613 21.2561 5.68608 21.8683 5.76386 23.6152C5.81977 24.805 5.98007 25.6041 6.26718 26.3437C6.52336 27.0034 6.82908 27.4797 7.333 27.9837C7.84331 28.4933 8.31868 28.7989 8.97154 29.0509C9.72192 29.341 10.5193 29.5013 11.7043 29.5561C13.3803 29.6345 13.966 29.6438 17.8202 29.6438C21.5764 29.6438 22.1886 29.6338 23.9356 29.5561C25.1228 29.5003 25.9225 29.3396 26.664 29.0527C27.3219 28.7972 27.7998 28.4904 28.3041 27.9869C28.8144 27.4758 29.1194 27.0016 29.3717 26.3472C29.661 25.5995 29.8216 24.8011 29.8764 23.6157C29.9549 21.9397 29.9641 21.3539 29.9641 17.4998C29.9641 13.7436 29.9541 13.1313 29.8764 11.3844C29.8205 10.1968 29.6598 9.39596 29.3726 8.65471C29.1177 7.99772 28.8115 7.52102 28.3056 7.01431C27.7964 6.50517 27.3237 6.20124 26.6642 5.94696C25.9217 5.65872 25.1239 5.49845 23.9359 5.44358C22.26 5.365 21.6742 5.35582 17.8202 5.35582ZM17.8202 2.31982C21.9439 2.31982 22.4589 2.335 24.0781 2.4109C25.6934 2.48554 26.7953 2.74107 27.763 3.11677C28.7636 3.5026 29.6086 4.02378 30.4523 4.86753C31.2948 5.71129 31.8161 6.55883 32.2032 7.55692C32.5775 8.52338 32.8332 9.62645 32.9091 11.2419C32.9812 12.8611 33.0001 13.3759 33.0001 17.4998C33.0001 21.6238 32.985 22.1385 32.9091 23.7578C32.8344 25.3732 32.5775 26.475 32.2032 27.4427C31.8173 28.4434 31.2948 29.2883 30.4523 30.1321C29.6086 30.9746 28.7598 31.4958 27.763 31.8828C26.7953 32.2573 25.6934 32.5128 24.0781 32.5887C22.4589 32.6608 21.9439 32.6798 17.8202 32.6798C13.6962 32.6798 13.1814 32.6646 11.5622 32.5887C9.94676 32.514 8.84622 32.2573 7.87723 31.8828C6.87787 31.497 6.03159 30.9746 5.18784 30.1321C4.34409 29.2883 3.82418 28.4396 3.43709 27.4427C3.06138 26.475 2.80712 25.3732 2.73122 23.7578C2.65911 22.1385 2.64014 21.6238 2.64014 17.4998C2.64014 13.3759 2.65532 12.8611 2.73122 11.2419C2.80584 9.62519 3.06138 8.52464 3.43709 7.55692C3.8229 6.55757 4.34409 5.71129 5.18784 4.86753C6.03159 4.02378 6.87915 3.50386 7.87723 3.11677C8.84496 2.74107 9.9455 2.4868 11.5622 2.4109C13.1814 2.3388 13.6962 2.31982 17.8202 2.31982Z" fill="white" fill-opacity="0.5"/>
</g>
<defs>
<clipPath id="clip0_89_153">
<rect width="33" height="33" fill="white"/>
</clipPath>
</defs>
</svg>
