<svg width="20" height="20" viewBox="0 0 20 20" fill="none" xmlns="http://www.w3.org/2000/svg">
<path d="M9.66001 6.76199C8.05896 6.76199 6.76199 8.05943 6.76199 9.65999C6.76199 11.2609 8.05945 12.558 9.66001 12.558C11.261 12.558 12.558 11.2606 12.558 9.65999C12.558 8.05904 11.2606 6.76199 9.66001 6.76199ZM9.66001 4.83C12.3266 4.83 14.49 6.99103 14.49 9.65999C14.49 12.3266 12.329 14.49 9.66001 14.49C6.99338 14.49 4.83 12.3289 4.83 9.65999C4.83 6.99338 6.99103 4.83 9.66001 4.83ZM15.939 4.58767C15.939 5.25432 15.3973 5.79519 14.7315 5.79519C14.0649 5.79519 13.524 5.25349 13.524 4.58767C13.524 3.92186 14.0656 3.381 14.7315 3.381C15.3964 3.38016 15.939 3.92186 15.939 4.58767ZM9.66001 1.932C7.26965 1.932 6.88004 1.93833 5.76826 1.98783C5.0108 2.02339 4.50305 2.12527 4.03129 2.30842C3.61204 2.47102 3.30962 2.66517 2.98739 2.9874C2.66393 3.31086 2.47012 3.61248 2.30818 4.03192C2.1246 4.50476 2.02275 5.01171 1.98783 5.76813C1.93784 6.83464 1.932 7.20737 1.932 9.65999C1.932 12.0504 1.93833 12.4399 1.98782 13.5516C2.0234 14.3088 2.12541 14.8173 2.30812 15.2879C2.47114 15.7077 2.66569 16.0109 2.98637 16.3316C3.31111 16.6559 3.61362 16.8503 4.02908 17.0107C4.50659 17.1953 5.01402 17.2973 5.76812 17.3321C6.83464 17.3821 7.20737 17.388 9.66001 17.388C12.0504 17.388 12.44 17.3816 13.5516 17.3321C14.3071 17.2967 14.816 17.1944 15.2879 17.0118C15.7066 16.8492 16.0107 16.654 16.3316 16.3336C16.6564 16.0083 16.8504 15.7066 17.011 15.2901C17.1951 14.8144 17.2973 14.3063 17.3322 13.5519C17.3821 12.4853 17.388 12.1126 17.388 9.65999C17.388 7.26964 17.3816 6.88005 17.3322 5.76834C17.2966 5.01263 17.1943 4.503 17.0116 4.03129C16.8494 3.6132 16.6545 3.30985 16.3326 2.9874C16.0086 2.6634 15.7077 2.46999 15.288 2.30818C14.8155 2.12475 14.3078 2.02276 13.5518 1.98784C12.4854 1.93784 12.1126 1.932 9.66001 1.932ZM9.66001 0C12.2842 0 12.6119 0.00965993 13.6423 0.0579599C14.6703 0.105458 15.3715 0.268065 15.9873 0.50715C16.624 0.752678 17.1618 1.08433 17.6987 1.62127C18.2348 2.15821 18.5665 2.69755 18.8129 3.3327C19.0511 3.94772 19.2137 4.64967 19.262 5.67766C19.3079 6.70806 19.32 7.03569 19.32 9.65999C19.32 12.2843 19.3103 12.6119 19.262 13.6423C19.2145 14.6703 19.0511 15.3715 18.8129 15.9873C18.5673 16.6241 18.2348 17.1617 17.6987 17.6987C17.1618 18.2349 16.6216 18.5665 15.9873 18.8128C15.3715 19.0511 14.6703 19.2137 13.6423 19.262C12.6119 19.3079 12.2842 19.32 9.66001 19.32C7.03569 19.32 6.70805 19.3103 5.67766 19.262C4.64967 19.2145 3.94932 19.0511 3.3327 18.8128C2.69674 18.5673 2.1582 18.2349 1.62127 17.6987C1.08433 17.1617 0.753479 16.6217 0.50715 15.9873C0.268065 15.3715 0.10626 14.6703 0.0579601 13.6423C0.0120752 12.6119 0 12.2843 0 9.65999C0 7.03569 0.00966016 6.70806 0.0579601 5.67766C0.105449 4.64887 0.268065 3.94852 0.50715 3.3327C0.752668 2.69675 1.08433 2.15821 1.62127 1.62127C2.1582 1.08433 2.69755 0.753479 3.3327 0.50715C3.94852 0.268065 4.64887 0.10626 5.67766 0.0579599C6.70805 0.0120749 7.03569 0 9.66001 0Z" fill="white"/>
</svg>
