<svg width="31" height="30" viewBox="0 0 31 30" fill="none" xmlns="http://www.w3.org/2000/svg">
<path d="M15.18 0C6.79305 0 0 6.79304 0 15.18C0 21.8971 4.34527 27.5707 10.3793 29.582C11.1383 29.7148 11.4229 29.2594 11.4229 28.861C11.4229 28.5004 11.404 27.305 11.404 26.0337C7.58999 26.7358 6.60329 25.1039 6.29969 24.25C6.12892 23.8136 5.3889 22.4664 4.74375 22.1059C4.21245 21.8212 3.45345 21.1192 4.72477 21.1002C5.92019 21.0812 6.77407 22.2007 7.05869 22.6561C8.42489 24.9521 10.607 24.307 11.4799 23.9085C11.6127 22.9218 12.0112 22.2577 12.4476 21.8782C9.07004 21.4987 5.54069 20.1894 5.54069 14.383C5.54069 12.7322 6.12892 11.366 7.09664 10.3034C6.94484 9.92392 6.41354 8.36797 7.24844 6.28072C7.24844 6.28072 8.51977 5.88225 11.4229 7.83667C12.6374 7.49512 13.9277 7.32434 15.218 7.32434C16.5083 7.32434 17.7986 7.49512 19.013 7.83667C21.9161 5.86327 23.1875 6.28072 23.1875 6.28072C24.0224 8.36797 23.4911 9.92392 23.3393 10.3034C24.307 11.366 24.8952 12.7132 24.8952 14.383C24.8952 20.2084 21.3469 21.4987 17.9693 21.8782C18.5196 22.3525 18.994 23.2633 18.994 24.6865C18.994 26.7168 18.975 28.3486 18.975 28.861C18.975 29.2594 19.2596 29.7338 20.0186 29.582C26.1977 27.496 30.3583 21.7018 30.36 15.18C30.36 6.79304 23.567 0 15.18 0Z" fill="white" fill-opacity="0.5"/>
</svg>
